<svg width="64" height="50" viewBox="0 0 64 50" fill="none" xmlns="http://www.w3.org/2000/svg">
<path d="M63.3599 14.4266L32.4267 0.559948C32.2133 0.453325 31.8933 0.453325 31.5733 0.559948L0.639991 14.4266C0.213373 14.5334 0 14.96 0 15.3866V48.4533C0 49.0933 0.426618 49.5199 1.06661 49.5199H7.46665H16H32.0001H48.0001H56.5335H62.9335C63.5735 49.5199 64.0001 49.0933 64.0001 48.4533V15.3866C64 14.96 63.7866 14.64 63.3599 14.4266ZM12.7999 44.1866C12.7999 42.3733 14.1866 40.9866 15.9999 40.9866C17.8133 40.9866 19.1999 42.3733 19.1999 44.1866C19.1999 46 17.8133 47.3866 15.9999 47.3866C14.1867 47.3867 12.7999 46 12.7999 44.1866ZM12.7999 35.6533C12.7999 33.84 14.1866 32.4534 15.9999 32.4534C17.8133 32.4534 19.1999 33.84 19.1999 35.6533C19.1999 37.4667 17.8133 38.8533 15.9999 38.8533C14.1867 38.8533 12.7999 37.4667 12.7999 35.6533ZM48 38.8533H36.292C36.9064 38.0238 37.282 37.003 37.3276 35.8839C37.3312 35.8071 37.3334 35.7302 37.3334 35.6533C37.3334 35.5765 37.3313 35.4996 37.3276 35.4228C37.282 34.3037 36.9064 33.2829 36.292 32.4534H48C49.8133 32.4534 51.1999 33.84 51.1999 35.6533C51.1999 37.4667 49.8133 38.8533 48 38.8533ZM21.3276 44.4173C21.3312 44.3405 21.3333 44.2636 21.3333 44.1867C21.3333 44.1098 21.3313 44.033 21.3276 43.9562C21.282 42.8371 20.9063 41.8162 20.292 40.9868H27.708C27.0936 41.8162 26.718 42.8371 26.6724 43.9562C26.6688 44.033 26.6666 44.1098 26.6666 44.1867C26.6666 44.2636 26.6687 44.3405 26.6724 44.4173C26.718 45.5364 27.0936 46.5572 27.708 47.3867H20.292C20.9063 46.5571 21.282 45.5362 21.3276 44.4173ZM28.8 44.1866C28.8 42.3733 30.1866 40.9866 31.9999 40.9866C33.8133 40.9866 35.1999 42.3733 35.1999 44.1866C35.1999 46 33.8133 47.3866 31.9999 47.3866C30.1866 47.3867 28.8 46 28.8 44.1866ZM35.2 35.6533C35.2 37.4667 33.8134 38.8533 32.0001 38.8533C30.1867 38.8533 28.8001 37.4667 28.8001 35.6533C28.8001 33.84 30.1867 32.4534 32.0001 32.4534C33.8133 32.4533 35.2 33.84 35.2 35.6533ZM26.6724 35.4227C26.6688 35.4994 26.6666 35.5763 26.6666 35.6532C26.6666 35.7301 26.6687 35.807 26.6724 35.8838C26.718 37.0028 27.0936 38.0237 27.708 38.8532H20.292C20.9063 38.0237 21.282 37.0028 21.3276 35.8838C21.3312 35.807 21.3333 35.7301 21.3333 35.6532C21.3333 35.5763 21.3313 35.4994 21.3276 35.4227C21.282 34.3036 20.9063 33.2827 20.292 32.4533H27.708C27.0936 33.2829 26.718 34.3037 26.6724 35.4227ZM36.292 47.3867C36.9064 46.5572 37.282 45.5364 37.3276 44.4173C37.3312 44.3405 37.3334 44.2636 37.3334 44.1867C37.3334 44.1098 37.3313 44.033 37.3276 43.9562C37.282 42.8371 36.9064 41.8162 36.292 40.9868H48C49.8133 40.9868 51.1999 42.3734 51.1999 44.1867C51.1999 46.0001 49.8133 47.3867 48 47.3867H36.292ZM52.292 47.3867C52.9482 46.5004 53.3333 45.3962 53.3333 44.1867C53.3333 42.4249 52.5161 40.8861 51.2332 39.92C52.5161 38.954 53.3333 37.4154 53.3333 35.6533C53.3333 32.6666 50.9866 30.32 48 30.32H31.9999H16C13.0133 30.32 10.6667 32.6668 10.6667 35.6533C10.6667 37.4152 11.4839 38.954 12.7668 39.92C11.4839 40.8861 10.6667 42.4249 10.6667 44.1867C10.6667 45.3962 11.0517 46.5005 11.7081 47.3867H8.53339V29.2533H55.4666V47.3866H52.292V47.3867ZM55.4666 27.12H8.53339V21.7867H55.4666V27.12ZM61.8667 47.3867H57.6V28.1867V20.72C57.6 20.0801 57.1733 19.6534 56.5334 19.6534H7.46665C6.82666 19.6534 6.40004 20.0801 6.40004 20.72V28.1867V47.3867H2.13335V16.0266L31.9999 2.69329L61.8667 16.0266V47.3867Z" fill="#4CB848"/>
<path d="M28.8001 7.91992C26.9867 7.91992 25.6001 9.30653 25.6001 11.1199V14.3198C25.6001 16.1332 26.9867 17.5198 28.8001 17.5198H32H35.2C37.0133 17.5198 38.3999 16.1332 38.3999 14.3198V11.1199C38.3999 9.30653 37.0133 7.91992 35.2 7.91992H32H28.8001ZM27.7333 14.32V11.12C27.7333 10.48 28.1599 10.0534 28.7999 10.0534H30.9333V15.3867H28.7999C28.1601 15.3866 27.7333 14.96 27.7333 14.32ZM36.2667 11.12V14.32C36.2667 14.96 35.8401 15.3866 35.2001 15.3866H33.0667V10.0533H35.2001C35.8401 10.0533 36.2667 10.48 36.2667 11.12Z" fill="#4CB848"/>
</svg>
