<svg width="15" height="15" viewBox="0 0 15 15" fill="none" xmlns="http://www.w3.org/2000/svg">
<g clip-path="url(#clip0_49_1066)">
<path d="M7.5 0C5.51133 0 3.60234 0.790664 2.19727 2.19668C0.790738 3.60325 0.000389613 5.51084 0 7.5C0 9.48832 0.791016 11.3973 2.19727 12.8033C3.60234 14.2093 5.51133 15 7.5 15C9.48867 15 11.3977 14.2093 12.8027 12.8033C14.209 11.3973 15 9.48832 15 7.5C15 5.51168 14.209 3.6027 12.8027 2.19668C11.3977 0.790664 9.48867 0 7.5 0Z" fill="url(#paint0_linear_49_1066)"/>
<path d="M3.39478 7.42078C5.5815 6.46828 7.03931 5.84027 7.76822 5.53687C9.85181 4.6705 10.2842 4.52003 10.5667 4.51494C10.6288 4.51394 10.767 4.52929 10.8573 4.60224C10.9323 4.66376 10.9534 4.74697 10.9639 4.80539C10.9733 4.86375 10.9862 4.99675 10.9756 5.10058C10.8631 6.28652 10.3745 9.16441 10.126 10.4927C10.0217 11.0548 9.81431 11.2432 9.61392 11.2616C9.17798 11.3017 8.84751 10.9738 8.42564 10.6973C7.76587 10.2646 7.39322 9.99527 6.7522 9.57304C6.01158 9.08507 6.49205 8.81683 6.91392 8.37855C7.02408 8.26382 8.94361 6.51832 8.97994 6.36C8.98462 6.34019 8.98931 6.26636 8.94478 6.22746C8.90142 6.18843 8.83697 6.20179 8.79009 6.21234C8.7233 6.22734 7.66978 6.92437 5.62603 8.30332C5.3272 8.50886 5.0565 8.60906 4.81275 8.60378C4.54556 8.59804 4.02994 8.45238 3.64673 8.32793C3.17798 8.17523 2.80416 8.09449 2.83697 7.83515C2.85337 7.70015 3.0397 7.56199 3.39478 7.42078Z" fill="white"/>
</g>
<defs>
<linearGradient id="paint0_linear_49_1066" x1="7.5" y1="0" x2="7.5" y2="15" gradientUnits="userSpaceOnUse">
<stop stop-color="#2AABEE"/>
<stop offset="1" stop-color="#229ED9"/>
</linearGradient>
<clipPath id="clip0_49_1066">
<rect width="15" height="15" fill="white"/>
</clipPath>
</defs>
</svg>
