<svg width="18" height="18" viewBox="0 0 18 18" fill="none" xmlns="http://www.w3.org/2000/svg">
<g clip-path="url(#clip0_49_1062)">
<path d="M0.383945 8.89228C0.383523 10.4046 0.781773 11.8813 1.53904 13.1829L0.311523 17.63L4.89815 16.4367C6.16675 17.122 7.58812 17.4811 9.03252 17.4811H9.03632C13.8046 17.4811 17.686 13.6312 17.6881 8.89905C17.689 6.606 16.7898 4.44977 15.1562 2.82754C13.5228 1.20545 11.3505 0.311654 9.03597 0.310608C4.26717 0.310608 0.385984 4.16038 0.384016 8.89228" fill="url(#paint0_linear_49_1062)"/>
<path d="M0.0752344 8.88949C0.0747422 10.4563 0.487266 11.9858 1.27153 13.334L0 17.9405L4.75109 16.7044C6.06016 17.4126 7.53405 17.786 9.03382 17.7866H9.03769C13.977 17.7866 17.9979 13.7981 18 8.8966C18.0008 6.52116 17.0693 4.28742 15.3773 2.60707C13.6851 0.92693 11.4351 0.000976744 9.03769 0C4.09753 0 0.0772734 3.98791 0.0753047 8.88949H0.0752344ZM2.90461 13.1018L2.72721 12.8223C1.98148 11.6458 1.58787 10.2862 1.58843 8.89005C1.59005 4.81598 4.93158 1.5014 9.0405 1.5014C11.0303 1.50223 12.9004 2.27191 14.3069 3.66837C15.7134 5.06498 16.4873 6.92149 16.4868 8.89605C16.485 12.9701 13.1434 16.2851 9.03769 16.2851H9.03473C7.69788 16.2844 6.38677 15.9282 5.24334 15.255L4.97123 15.0949L2.15184 15.8284L2.90461 13.1017V13.1018Z" fill="url(#paint1_linear_49_1062)"/>
<path d="M6.79787 5.17313C6.63011 4.80315 6.45355 4.79569 6.29401 4.7892C6.16337 4.78362 6.01403 4.78403 5.86482 4.78403C5.71548 4.78403 5.47283 4.83978 5.26773 5.06199C5.06242 5.28441 4.48389 5.82189 4.48389 6.91508C4.48389 8.00834 5.28636 9.06482 5.39823 9.21322C5.51024 9.36134 6.94743 11.6765 9.22358 12.5671C11.1153 13.3073 11.5002 13.1601 11.9108 13.123C12.3214 13.086 13.2358 12.5856 13.4223 12.0668C13.609 11.548 13.609 11.1033 13.553 11.0104C13.497 10.9178 13.3477 10.8622 13.1237 10.7511C12.8997 10.64 11.7988 10.1024 11.5935 10.0282C11.3882 9.95415 11.2389 9.91717 11.0896 10.1397C10.9403 10.3618 10.5114 10.8622 10.3807 11.0104C10.2501 11.1589 10.1194 11.1774 9.89556 11.0662C9.67147 10.9548 8.95028 10.7204 8.09464 9.9635C7.42893 9.37452 6.97949 8.6472 6.84885 8.42471C6.71821 8.20257 6.83486 8.08215 6.94714 7.97143C7.04776 7.87187 7.17116 7.71196 7.28324 7.58227C7.39489 7.4525 7.43216 7.35992 7.50683 7.21173C7.58157 7.06341 7.54417 6.93364 7.48827 6.8225C7.43216 6.71136 6.997 5.61252 6.79787 5.1732" fill="white"/>
</g>
<defs>
<linearGradient id="paint0_linear_49_1062" x1="8.99979" y1="17.63" x2="8.99979" y2="0.310608" gradientUnits="userSpaceOnUse">
<stop stop-color="#1FAF38"/>
<stop offset="1" stop-color="#60D669"/>
</linearGradient>
<linearGradient id="paint1_linear_49_1062" x1="9" y1="17.9405" x2="9" y2="0" gradientUnits="userSpaceOnUse">
<stop stop-color="#F9F9F9"/>
<stop offset="1" stop-color="white"/>
</linearGradient>
<clipPath id="clip0_49_1062">
<rect width="18" height="18" fill="white"/>
</clipPath>
</defs>
</svg>
