<svg width="63" height="49" viewBox="0 0 63 49" fill="none" xmlns="http://www.w3.org/2000/svg">
<path d="M62.685 24.8151L54.285 15.3651C54.18 15.1551 53.8649 15.0501 53.5499 15.0501H46.1999V1.4001C46.1999 0.770098 45.7799 0.350098 45.15 0.350098H21V2.4501H44.1V16.1001V31.8501H19.95V33.9501H44.1V38.1501H23.1V40.2501H45.15C45.7799 40.2501 46.1999 39.8301 46.1999 39.2001V32.9001V17.1501H53.1299L59.6399 24.5001H52.5V26.6001H60.8999V39.2001H63V25.5501C63 25.2351 62.895 25.0251 62.685 24.8151Z" fill="#4CB848"/>
<path d="M14.6999 36.0503C11.2349 36.0503 8.3999 38.8853 8.3999 42.3503C8.3999 45.8153 11.2349 48.6503 14.6999 48.6503C18.1649 48.6503 20.9999 45.8153 20.9999 42.3503C20.9999 38.8853 18.1649 36.0503 14.6999 36.0503ZM14.6999 46.5503C12.3899 46.5503 10.4999 44.6603 10.4999 42.3503C10.4999 40.0403 12.3899 38.1503 14.6999 38.1503C17.0099 38.1503 18.8999 40.0403 18.8999 42.3503C18.8999 44.6603 17.0099 46.5503 14.6999 46.5503Z" fill="#4CB848"/>
<path d="M53.55 36.0503C50.085 36.0503 47.25 38.8853 47.25 42.3503C47.25 45.8153 50.085 48.6503 53.55 48.6503C57.015 48.6503 59.85 45.8153 59.85 42.3503C59.85 38.8853 57.015 36.0503 53.55 36.0503ZM53.55 46.5503C51.24 46.5503 49.35 44.6603 49.35 42.3503C49.35 40.0403 51.24 38.1503 53.55 38.1503C55.86 38.1503 57.75 40.0403 57.75 42.3503C57.75 44.6603 55.86 46.5503 53.55 46.5503Z" fill="#4CB848"/>
<path d="M55.65 29.75H52.5V31.85H55.65V29.75Z" fill="#4CB848"/>
<path d="M14.7001 44.45C15.8599 44.45 16.8001 43.5098 16.8001 42.35C16.8001 41.1902 15.8599 40.25 14.7001 40.25C13.5403 40.25 12.6001 41.1902 12.6001 42.35C12.6001 43.5098 13.5403 44.45 14.7001 44.45Z" fill="#4CB848"/>
<path d="M53.55 44.45C54.7097 44.45 55.65 43.5098 55.65 42.35C55.65 41.1902 54.7097 40.25 53.55 40.25C52.3902 40.25 51.45 41.1902 51.45 42.35C51.45 43.5098 52.3902 44.45 53.55 44.45Z" fill="#4CB848"/>
<path d="M6.3 38.1499H0V40.2499H6.3V38.1499Z" fill="#4CB848"/>
<path d="M17.85 0.350098H0V2.4501H17.85V0.350098Z" fill="#4CB848"/>
<path d="M23.0999 8.75H3.1499V10.85H23.0999V8.75Z" fill="#4CB848"/>
<path d="M31.5 17.1499H11.55V19.2499H31.5V17.1499Z" fill="#4CB848"/>
<path d="M14.7 26.6001H0V28.7001H14.7V26.6001Z" fill="#4CB848"/>
<path d="M8.39995 17.1499H4.19995V19.2499H8.39995V17.1499Z" fill="#4CB848"/>
</svg>
