<svg width="46" height="54" viewBox="0 0 46 54" fill="none" xmlns="http://www.w3.org/2000/svg">
<path d="M32.6345 30.9845C32.0976 30.8812 30.6414 30.6009 29.977 30.4731C29.1752 30.3188 28.5932 29.6142 28.5932 28.7978V27.7995C29.1738 27.4438 29.7335 27.0303 30.2708 26.5582C32.1772 24.8824 33.3549 22.5057 33.5927 19.8589C34.9852 19.811 36.1006 18.6506 36.0947 17.2362L36.0863 15.228C36.0837 14.6055 35.8599 14.0095 35.4629 13.5418V11.0805C35.4629 10.6382 35.1043 10.2796 34.662 10.2796C34.2197 10.2796 33.8611 10.6382 33.8611 11.0805V12.796C26.5636 10.7444 19.4358 10.7443 12.1391 12.796V8.64282C12.1391 5.9539 13.9606 3.6184 16.5685 2.96322L21.0151 1.84631C22.3137 1.5202 23.6865 1.5202 24.985 1.84631L29.4316 2.96322C31.6117 3.51082 33.3056 5.28754 33.7468 7.48963C33.8337 7.92331 34.2559 8.20439 34.6895 8.11759C35.1232 8.03068 35.4044 7.60859 35.3175 7.17491C34.7553 4.36997 32.5982 2.10703 29.8218 1.40967L25.3752 0.292755C23.8214 -0.097585 22.1787 -0.097585 20.6247 0.292755L16.1782 1.40967C12.8568 2.24393 10.5372 5.21836 10.5372 8.64282V13.542C10.1402 14.0096 9.91638 14.6056 9.91374 15.2281L9.90541 17.2363C9.8995 18.6506 11.0148 19.811 12.4073 19.859C12.6452 22.506 13.8228 24.8825 15.7293 26.5583C16.2664 27.0305 16.8263 27.4438 17.4069 27.7996V28.7979C17.4069 29.5439 16.9488 30.2386 16.0305 30.4711L13.3657 30.9847C6.01266 32.3998 0.708008 38.8632 0.708008 46.3107V49.5702C0.708008 52.0128 2.69525 54.0002 5.13801 54.0002H40.8622C43.3048 54.0002 45.2922 52.0129 45.2922 49.5702V46.3107C45.2922 38.834 39.9594 32.3942 32.6345 30.9845ZM32.9057 32.6808C33.7702 32.8849 34.6007 33.1681 35.3907 33.521V42.5321C34.8644 42.1757 34.2301 41.9672 33.548 41.9672H32.9058V32.6808H32.9057ZM33.0999 14.2457C32.273 15.0601 31.3092 16.3393 29.3548 16.0017C27.2166 15.633 25.1086 15.4486 23.0001 15.4486C20.8921 15.4486 18.7837 15.633 16.6459 16.0016C14.7058 16.3365 13.7333 15.0671 12.897 14.2466C19.68 12.3979 26.316 12.3976 33.0999 14.2457ZM16.787 25.355C15.1746 23.9377 14.1839 21.9107 13.9971 19.6472C13.932 18.8589 13.2853 18.2619 12.4928 18.2585C11.9471 18.2562 11.5051 17.8006 11.5074 17.2428L11.5157 15.2346C11.5158 15.204 11.5181 15.1738 11.521 15.1436C12.7483 16.3312 14.1252 18.0619 16.918 17.5802C21.0108 16.8744 24.9899 16.8744 29.0825 17.5803C31.9778 18.0795 33.4514 16.1337 34.479 15.1394C34.4821 15.1709 34.4844 15.2027 34.4845 15.2346L34.4928 17.2428C34.4951 17.8006 34.0531 18.2561 33.5075 18.2585C32.715 18.2619 32.0683 18.8589 32.0032 19.6473C31.8164 21.9107 30.8257 23.9378 29.2133 25.3551C25.5246 28.5973 20.5129 28.6302 16.787 25.355ZM28.5325 31.5928L27.179 32.6802C24.8787 34.5282 21.5491 34.5163 19.2621 32.6516L17.7357 31.4072C19.1607 30.3023 18.9967 28.6646 19.0088 28.6101C21.6177 29.6722 24.351 29.685 26.9913 28.6101C27.0006 28.6466 26.833 30.5158 28.5325 31.5928ZM14.9015 32.3202L16.0496 32.0993L18.2498 33.8932C21.1203 36.2337 25.264 36.2736 28.1822 33.929L30.3613 32.1784L31.3038 32.3598V41.9673H14.9015V32.3202ZM8.48622 46.9184C7.9978 47.5078 7.72885 48.2541 7.72885 49.0197V52.3981H5.13801C3.57866 52.3981 2.30997 51.1294 2.30997 49.5701V46.8871H8.51217L8.48622 46.9184ZM9.2128 45.2851H2.34805C2.68839 40.6373 5.32269 36.5374 9.21269 34.2422V36.5584C9.21269 37.0007 9.57129 37.3593 10.0136 37.3593C10.456 37.3593 10.8146 37.0007 10.8146 36.5584V33.4314C11.6056 33.0931 12.4361 32.8246 13.2995 32.6343V41.9673H12.6478C11.9698 41.9673 11.3389 42.1733 10.8146 42.526V40.3027C10.8146 39.8604 10.456 39.5018 10.0136 39.5018C9.57129 39.5018 9.21269 39.8604 9.21269 40.3027V45.2851H9.2128ZM36.6696 52.3981H9.33061V49.0197C9.33061 48.1553 9.92313 47.7635 10.1986 47.3623C10.691 46.7679 10.956 46.0147 10.956 45.2609C10.956 44.3281 11.7149 43.5691 12.6478 43.5691H33.5478C34.4807 43.5691 35.2396 44.3281 35.2396 45.2609C35.2486 45.3211 35.1548 46.304 35.8715 47.2874C36.1723 47.7719 36.6694 48.1408 36.6694 48.9333V52.3981H36.6696ZM36.9925 45.2851V34.3656C40.7699 36.6825 43.3178 40.7195 43.6521 45.2851H36.9925ZM43.6902 49.57C43.6902 51.1293 42.4215 52.398 40.8622 52.398H38.2714V48.9333C38.2714 48.2315 38.0529 47.5607 37.6396 46.9934L37.5621 46.8871H43.6902V49.57Z" fill="#4CB848"/>
<path d="M20.0264 4.37256C18.9867 4.37256 18.1409 5.21842 18.1409 6.25813V7.64863C18.1409 8.68834 18.9867 9.5342 20.0264 9.5342H25.9734C27.0131 9.5342 27.859 8.68834 27.859 7.64863V6.25813C27.859 5.21842 27.0131 4.37256 25.9734 4.37256H20.0264ZM26.2571 6.25813V7.64863C26.2571 7.80504 26.1299 7.93234 25.9734 7.93234H20.0264C19.87 7.93234 19.7427 7.80515 19.7427 7.64863V6.25813C19.7427 6.10172 19.8699 5.97442 20.0264 5.97442H25.9734C26.1298 5.97442 26.2571 6.10172 26.2571 6.25813Z" fill="#4CB848"/>
</svg>
