<svg width="11" height="20" viewBox="0 0 11 20" fill="none" xmlns="http://www.w3.org/2000/svg">
<path d="M0.65468 0.791173C0.512944 0.936282 0.433594 1.13108 0.433594 1.33392C0.433594 1.53677 0.512944 1.73156 0.65468 1.87667L8.5733 10L0.65468 18.1218C0.512944 18.2669 0.433594 18.4617 0.433594 18.6645C0.433594 18.8674 0.512944 19.0622 0.65468 19.2073C0.723574 19.2781 0.805944 19.3343 0.89693 19.3727C0.987916 19.4111 1.08567 19.4309 1.18443 19.4309C1.28319 19.4309 1.38094 19.4111 1.47193 19.3727C1.56292 19.3343 1.64529 19.2781 1.71418 19.2073L10.1349 10.5672C10.2828 10.4154 10.3656 10.2119 10.3656 10C10.3656 9.78816 10.2828 9.58465 10.1349 9.43292L1.71418 0.792798C1.64529 0.72204 1.56292 0.6658 1.47193 0.627399C1.38094 0.588998 1.28319 0.569214 1.18443 0.569214C1.08567 0.569214 0.987916 0.588998 0.89693 0.627399C0.805944 0.6658 0.723574 0.72204 0.65468 0.792798V0.791173Z" fill="#4CB848"/>
</svg>
