<svg width="54" height="54" viewBox="0 0 54 54" fill="none" xmlns="http://www.w3.org/2000/svg">
<path d="M43.511 14.6115C46.24 14.6115 48.4573 12.3942 48.4573 9.66518C48.4573 6.93618 46.24 4.71887 43.511 4.71887C40.782 4.71887 38.5647 6.93618 38.5647 9.66518C38.5647 12.3942 40.782 14.6115 43.511 14.6115ZM43.511 6.42449C45.2962 6.42449 46.7517 7.87996 46.7517 9.66518C46.7517 11.4504 45.2962 12.9059 43.511 12.9059C41.7258 12.9059 40.2703 11.4504 40.2703 9.66518C40.2703 7.87996 41.7258 6.42449 43.511 6.42449Z" fill="white"/>
<path d="M30.4003 15.3392L23.3845 21.6841L22.5999 20.8086C22.2816 20.4561 21.7471 20.4333 21.3946 20.7517C21.0421 21.0701 21.0194 21.6045 21.3378 21.957L22.1224 22.8326L21.0308 23.8218L20.2462 22.9463C19.9278 22.5938 19.3934 22.571 19.0409 22.8894C18.6884 23.2078 18.6656 23.7422 18.984 24.0947L19.7686 24.9703L16.4711 27.9381C16.1186 28.2565 16.0958 28.7909 16.4142 29.1434C16.7326 29.4959 17.267 29.5186 17.6195 29.2002L20.9171 26.2325L24.5444 30.2463C24.8627 30.5988 25.3972 30.6216 25.7497 30.3032C26.1022 29.9848 26.1249 29.4504 25.8065 29.0979L22.1792 25.084L23.2708 24.0947L25.1811 26.2097C27.2961 28.5407 30.9916 28.6544 33.4363 26.4485C35.8811 24.2426 36.1767 20.6039 34.1186 18.1705C34.1072 18.1592 34.1072 18.1592 34.0958 18.1478L31.6056 15.3961C31.2872 15.0436 30.7528 15.0208 30.4003 15.3392ZM32.8223 19.2849C34.2778 21.0132 34.039 23.5944 32.2879 25.175C30.5481 26.7441 27.9215 26.6987 26.4433 25.0613L24.533 22.9463L30.9234 17.1813L32.8223 19.2849Z" fill="white"/>
<path d="M52.3006 0H31.1054C30.9007 0 30.7074 0.0682235 30.5482 0.204673L1.14327 25.5161C0.961339 25.6639 0.859002 25.8913 0.847631 26.1301C0.83626 26.3689 0.927227 26.5963 1.09779 26.7669L22.293 47.5869C22.4635 47.7461 22.6796 47.8257 22.8956 47.8257C23.0889 47.8257 23.2936 47.7574 23.4528 47.6323L52.8577 22.4005C53.0397 22.2413 53.1534 22.0025 53.1534 21.7524V0.852811C53.1534 0.386608 52.7668 0 52.3006 0ZM51.4591 21.3544L22.9411 45.813L2.9626 26.1984L31.4351 1.69425H51.4591V21.3544Z" fill="white"/>
<path d="M51.7435 27.2786L22.9412 51.9874L2.30321 31.3721C1.97345 31.0423 1.42765 31.0423 1.0979 31.3721C0.768148 31.7018 0.768148 32.2476 1.0979 32.5774L22.2931 53.7498C22.4637 53.9204 22.6797 54 22.8958 54C23.0891 54 23.2937 53.9318 23.4529 53.8067L52.8579 28.5748C53.2103 28.2678 53.2558 27.722 52.9488 27.3695C52.6418 27.017 52.096 26.9716 51.7435 27.2786Z" fill="white"/>
</svg>
