<svg width="71" height="43" viewBox="0 0 71 43" fill="none" xmlns="http://www.w3.org/2000/svg">
<path d="M8.875 25.9085C9.48765 25.9085 9.98438 26.4052 9.98438 27.0179V34.7913H11.7494C12.1844 30.9435 15.6562 28.177 19.5038 28.6119C22.7523 28.9791 25.3158 31.5427 25.6831 34.7913H48.8125V2.61938H9.98438V6.10837C9.98438 6.72102 9.48765 7.21774 8.875 7.21774C8.26235 7.21774 7.76562 6.72102 7.76562 6.10837V1.51001C7.76562 0.897357 8.26235 0.400635 8.875 0.400635H49.9219C50.5345 0.400635 51.0312 0.897357 51.0312 1.51001V2.61938H63.7358C66.5208 2.62299 68.7776 4.87974 68.7812 7.66482V9.27563C68.7812 9.88829 68.2845 10.385 67.6719 10.385H66.3817L67.2281 20.5524C69.4434 21.129 70.9922 23.1256 71 25.4148V34.7913C71 35.4039 70.5033 35.9006 69.8906 35.9006H67.6441C67.34 39.8678 63.8774 42.8373 59.9103 42.5332C56.3658 42.2615 53.5495 39.4451 53.2777 35.9006C53.2677 35.9006 53.26 35.9062 53.25 35.9062H51.0312C51.0312 36.5188 50.5345 37.0156 49.9219 37.0156H25.5822C24.7919 40.8075 21.0772 43.2408 17.2852 42.4505C14.5538 41.8813 12.4196 39.747 11.8503 37.0156H8.875C8.26235 37.0156 7.76562 36.5188 7.76562 35.9062V27.0179C7.76562 26.4051 8.26235 25.9085 8.875 25.9085ZM60.4609 40.3381C63.218 40.3381 65.4531 38.103 65.4531 35.3459C65.4531 32.5889 63.218 30.3538 60.4609 30.3538C57.7039 30.3538 55.4688 32.5889 55.4688 35.3459C55.4718 38.1018 57.7051 40.3351 60.4609 40.3381ZM51.0312 33.6819H53.25C53.315 33.6887 53.3794 33.7016 53.4419 33.7207C54.3341 29.8444 58.1998 27.4254 62.0759 28.3176C64.7487 28.9328 66.84 31.0126 67.47 33.6819H68.7812V25.4148C68.7794 23.8545 67.5149 22.5899 65.9546 22.5881H51.0312V33.6819ZM51.0312 20.3694H64.9872L64.1552 10.385H51.0312V20.3694ZM51.0312 8.16626H66.5625V7.66482C66.5607 6.10449 65.2961 4.83994 63.7358 4.83813H51.0312V8.16626ZM13.9289 35.8563C14.0715 38.3942 16.1733 40.3779 18.7152 40.3736H18.7163C21.0439 40.3685 23.0313 38.6921 23.4289 36.3987C23.2345 36.059 23.2567 35.6369 23.4855 35.3193C23.3372 32.6804 21.0777 30.6612 18.4386 30.8094C15.7997 30.9577 13.7805 33.2172 13.9289 35.8563Z" fill="#4CB848"/>
<path d="M9.98438 9.27563H25.5156C26.1283 9.27563 26.625 9.77236 26.625 10.385C26.625 10.9977 26.1283 11.4944 25.5156 11.4944H9.98438C9.37172 11.4944 8.875 10.9977 8.875 10.385C8.875 9.77236 9.37172 9.27563 9.98438 9.27563Z" fill="#4CB848"/>
<path d="M7.76562 21.4788H32.1719C32.7845 21.4788 33.2812 21.9755 33.2812 22.5881C33.2812 23.2008 32.7845 23.6975 32.1719 23.6975H7.76562C7.15297 23.6975 6.65625 23.2008 6.65625 22.5881C6.65625 21.9755 7.15297 21.4788 7.76562 21.4788Z" fill="#4CB848"/>
<path d="M9.98438 14.8225H22.1875C22.8002 14.8225 23.2969 15.3192 23.2969 15.9319C23.2969 16.5445 22.8002 17.0413 22.1875 17.0413H9.98438C9.37172 17.0413 8.875 16.5445 8.875 15.9319C8.875 15.3192 9.37172 14.8225 9.98438 14.8225Z" fill="#4CB848"/>
<path d="M5.54688 11.4944H3.32812C2.71547 11.4944 2.21875 10.9977 2.21875 10.385C2.21875 9.77236 2.71547 9.27563 3.32812 9.27563H5.54688C6.15953 9.27563 6.65625 9.77236 6.65625 10.385C6.65625 10.9977 6.15953 11.4944 5.54688 11.4944Z" fill="#4CB848"/>
<path d="M2.21875 21.4788H4.4375C5.05015 21.4788 5.54688 21.9755 5.54688 22.5881C5.54688 23.2008 5.05015 23.6975 4.4375 23.6975H2.21875C1.6061 23.6975 1.10938 23.2008 1.10938 22.5881C1.10938 21.9755 1.6061 21.4788 2.21875 21.4788Z" fill="#4CB848"/>
<path d="M1.10938 14.8225H5.54688C6.15953 14.8225 6.65625 15.3192 6.65625 15.9319C6.65625 16.5445 6.15953 17.0413 5.54688 17.0413H1.10938C0.496723 17.0413 0 16.5445 0 15.9319C0 15.3192 0.496723 14.8225 1.10938 14.8225Z" fill="#4CB848"/>
</svg>
