<svg width="59" height="59" viewBox="0 0 59 59" fill="none" xmlns="http://www.w3.org/2000/svg">
<path d="M29.6563 2C24.7689 2.00102 19.9691 3.29691 15.7452 5.75577C11.5214 8.21462 8.02449 11.7487 5.61033 15.9982C3.19618 20.2477 1.951 25.061 2.00155 29.9481C2.0521 34.8352 3.39656 39.6217 5.8981 43.8204C5.77215 43.973 5.69872 44.1622 5.6887 44.3598C5.67867 44.5575 5.73258 44.7531 5.84244 44.9177L6.88646 46.4837L2.44764 49.147C2.28807 49.2427 2.1612 49.3845 2.08372 49.5537C2.00624 49.7228 1.98177 49.9115 2.01353 50.0949C2.04528 50.2782 2.13178 50.4477 2.26165 50.5809C2.39151 50.7142 2.55867 50.805 2.74114 50.8415L6.56772 51.6068L6.31156 56.3407C6.3025 56.5079 6.33914 56.6744 6.41752 56.8223C6.49591 56.9702 6.61309 57.094 6.7565 57.1803C6.8999 57.2667 7.06412 57.3124 7.23152 57.3125C7.39892 57.3126 7.56319 57.2671 7.7067 57.1809L14.7475 52.9518C19.199 55.799 24.3726 57.312 29.6567 57.312C34.9408 57.312 40.1145 55.799 44.5659 52.9518L51.6067 57.1809C51.7502 57.2671 51.9145 57.3126 52.0819 57.3125C52.2493 57.3124 52.4135 57.2667 52.5569 57.1803C52.7003 57.094 52.8175 56.9702 52.8959 56.8223C52.9743 56.6744 53.0109 56.5079 53.0019 56.3407L52.7457 51.6068L56.5723 50.8415C56.7548 50.805 56.9219 50.7142 57.0518 50.5809C57.1816 50.4477 57.2681 50.2782 57.2999 50.0949C57.3317 49.9115 57.3072 49.7228 57.2297 49.5537C57.1522 49.3845 57.0254 49.2427 56.8658 49.147L52.4266 46.4837L53.4706 44.9177C53.5805 44.753 53.6344 44.5573 53.6244 44.3596C53.6143 44.1619 53.5408 43.9727 53.4147 43.8201C55.9171 39.6215 57.2622 34.8349 57.3132 29.9474C57.3641 25.06 56.119 20.2464 53.7047 15.9966C51.2903 11.7468 47.793 8.21273 43.5687 5.75411C39.3444 3.29548 34.544 2.00015 29.6563 2ZM10.5699 43.5278C16.5264 40.6688 23.0492 39.1844 29.6563 39.1844C36.2634 39.1844 42.7862 40.6688 48.7427 43.5278L51.347 44.7781L48.687 48.7681C42.7111 46.0487 36.2217 44.6416 29.6561 44.6416C23.0905 44.6416 16.6011 46.0487 10.6251 48.7681L7.96529 44.7781L10.5699 43.5278ZM29.6563 37.3407C24.4485 37.348 19.2794 38.2348 14.367 39.9637C12.3062 36.9221 11.2092 33.3303 11.2188 29.6562C11.2188 19.4897 19.4898 11.2188 29.6563 11.2188C39.8229 11.2188 48.0938 19.4897 48.0938 29.6562C48.1026 33.3302 47.0054 36.9217 44.945 39.9635C40.0328 38.2347 34.8639 37.3479 29.6563 37.3407ZM36.0368 46.9557C31.9184 48.4731 27.3939 48.4731 23.2754 46.9557C27.5061 46.3285 31.8062 46.3285 36.0368 46.9557ZM8.24646 54.706L8.45181 50.9093C8.46382 50.6879 8.39565 50.4696 8.2598 50.2944C8.12394 50.1192 7.92951 49.9988 7.71212 49.9554L5.44096 49.5012L7.91044 48.0195L9.52994 50.4489C9.65288 50.6333 9.83814 50.7672 10.0518 50.8262C10.2654 50.8851 10.4931 50.8651 10.6932 50.7698C11.3103 50.476 11.9346 50.197 12.5661 49.9329L13.6032 51.4886L8.24646 54.706ZM15.7454 51.4022C15.725 51.3562 15.7009 51.3119 15.6733 51.2698L14.3209 49.2417C16.204 48.5458 18.1321 47.9782 20.0919 47.5426C23.0347 49.115 26.3198 49.9376 29.6563 49.9376C32.9929 49.9376 36.2779 49.115 39.2208 47.5426C41.1806 47.9779 43.1087 48.5454 44.9918 49.2411L43.6394 51.2693C43.6118 51.3113 43.5877 51.3556 43.5674 51.4016C39.4136 54.057 34.5865 55.4681 29.6565 55.4681C24.7264 55.4681 19.8994 54.057 15.7456 51.4016L15.7454 51.4022ZM53.8717 49.5009L51.6005 49.955C51.3831 49.9985 51.1887 50.1189 51.0528 50.2941C50.917 50.4693 50.8488 50.6876 50.8608 50.9089L51.0662 54.7057L45.7095 51.4886L46.7466 49.9329C47.3775 50.1976 48.0019 50.4766 48.6195 50.7698C48.8197 50.8653 49.0475 50.8853 49.2613 50.8264C49.475 50.7675 49.6604 50.6334 49.7834 50.4489L51.4029 48.0195L53.8717 49.5009ZM51.7897 42.945L49.5406 41.8653C48.6142 41.4208 47.6727 41.008 46.7159 40.6271C48.8276 37.3584 49.9466 33.5477 49.9376 29.6562C49.9376 18.4731 40.8395 9.375 29.6563 9.375C18.4732 9.375 9.37506 18.4731 9.37506 29.6562C9.36494 33.548 10.4837 37.3591 12.5957 40.6278C11.6404 41.0088 10.6993 41.4214 9.77251 41.8657L7.52394 42.945C5.17345 39.0281 3.9045 34.5576 3.84663 29.99C3.78877 25.4223 4.94408 20.9212 7.19459 16.946C9.4451 12.9708 12.7102 9.66412 16.6565 7.36343C20.6029 5.06275 25.0891 3.85052 29.6571 3.85052C34.2251 3.85052 38.7112 5.06275 42.6576 7.36343C46.6039 9.66412 49.869 12.9708 52.1195 16.946C54.37 20.9212 55.5253 25.4223 55.4675 29.99C55.4096 34.5576 54.1407 39.0281 51.7902 42.945H51.7897Z" fill="#4CB848"/>
<path d="M38.2578 22.125H33.1875C32.9431 22.1247 32.7088 22.0275 32.5359 21.8547C32.3631 21.6819 32.2659 21.4475 32.2656 21.2031V18.4375C32.2648 17.7043 31.9731 17.0013 31.4546 16.4829C30.9362 15.9644 30.2332 15.6727 29.5 15.6719H27.6562C27.4118 15.6719 27.1773 15.769 27.0044 15.9419C26.8315 16.1148 26.7344 16.3493 26.7344 16.5938V18.6257C26.7363 19.3221 26.6 20.0119 26.3335 20.6553C26.067 21.2987 25.6755 21.8828 25.1817 22.3738L24.5087 23.0469H19.3594C19.1149 23.0469 18.8804 23.144 18.7075 23.3169C18.5346 23.4898 18.4375 23.7243 18.4375 23.9688V34.1094C18.4375 34.3539 18.5346 34.5884 18.7075 34.7612C18.8804 34.9341 19.1149 35.0312 19.3594 35.0312H35.4922C35.8655 35.0313 36.2332 34.9407 36.5638 34.7673C36.8943 34.5938 37.1778 34.3426 37.3898 34.0353C37.6018 33.728 37.736 33.3738 37.7808 33.0032C37.8256 32.6326 37.7797 32.2567 37.6471 31.9077C38.0961 31.6237 38.4331 31.1933 38.6011 30.6893C38.7691 30.1853 38.7578 29.6387 38.5689 29.1421C39.0179 28.8581 39.355 28.4276 39.523 27.9236C39.691 27.4196 39.6796 26.873 39.4908 26.3765C39.9125 26.1093 40.236 25.7124 40.4127 25.2456C40.5894 24.7787 40.6098 24.2671 40.4707 23.7877C40.3317 23.3083 40.0408 22.887 39.6417 22.5872C39.2426 22.2873 38.757 22.1251 38.2578 22.125ZM20.2812 24.8906H23.9687V33.1875H20.2812V24.8906ZM38.2578 24.8906H37.3359C37.0914 24.8906 36.857 24.9878 36.6841 25.1606C36.5112 25.3335 36.4141 25.568 36.4141 25.8125C36.4141 26.057 36.5112 26.2915 36.6841 26.4644C36.857 26.6372 37.0914 26.7344 37.3359 26.7344C37.4582 26.7344 37.5754 26.7829 37.6619 26.8694C37.7483 26.9558 37.7969 27.0731 37.7969 27.1953C37.7969 27.3176 37.7483 27.4348 37.6619 27.5212C37.5754 27.6077 37.4582 27.6562 37.3359 27.6562H36.4141C36.1696 27.6562 35.9351 27.7534 35.7622 27.9263C35.5893 28.0991 35.4922 28.3336 35.4922 28.5781C35.4922 28.8226 35.5893 29.0571 35.7622 29.23C35.9351 29.4029 36.1696 29.5 36.4141 29.5C36.5363 29.5 36.6535 29.5486 36.74 29.635C36.8264 29.7214 36.875 29.8387 36.875 29.9609C36.875 30.0832 36.8264 30.2004 36.74 30.2869C36.6535 30.3733 36.5363 30.4219 36.4141 30.4219H35.4922C35.2477 30.4219 35.0132 30.519 34.8403 30.6919C34.6674 30.8648 34.5703 31.0993 34.5703 31.3438C34.5703 31.5882 34.6674 31.8227 34.8403 31.9956C35.0132 32.1685 35.2477 32.2656 35.4922 32.2656C35.6144 32.2656 35.7317 32.3142 35.8181 32.4006C35.9046 32.4871 35.9531 32.6043 35.9531 32.7266C35.9531 32.8488 35.9046 32.9661 35.8181 33.0525C35.7317 33.1389 35.6144 33.1875 35.4922 33.1875H25.8125V24.3505L26.4856 23.6777C27.1511 23.0157 27.6787 22.2284 28.0378 21.3613C28.397 20.4941 28.5807 19.5643 28.5781 18.6257V17.5156H29.5C29.7444 17.5159 29.9787 17.6131 30.1516 17.7859C30.3244 17.9588 30.4216 18.1931 30.4219 18.4375V21.2031C30.4227 21.9364 30.7144 22.6393 31.2328 23.1578C31.7513 23.6762 32.4543 23.9679 33.1875 23.9688H38.2578C38.3801 23.9688 38.4973 24.0173 38.5837 24.1038C38.6702 24.1902 38.7187 24.3074 38.7187 24.4297C38.7187 24.5519 38.6702 24.6692 38.5837 24.7556C38.4973 24.8421 38.3801 24.8906 38.2578 24.8906Z" fill="#4CB848"/>
<path d="M27.5878 41.5074L28.4405 42.127L28.1148 43.1295C28.0922 43.199 28.0921 43.2738 28.1147 43.3432C28.1372 43.4127 28.1812 43.4733 28.2403 43.5162C28.2994 43.5591 28.3705 43.5822 28.4436 43.5822C28.5166 43.5822 28.5877 43.5591 28.6468 43.5161L29.4995 42.8965L30.3523 43.5161C30.4114 43.5591 30.4825 43.5822 30.5555 43.5822C30.6286 43.5822 30.6997 43.5591 30.7588 43.5162C30.8179 43.4733 30.8619 43.4127 30.8844 43.3432C30.907 43.2738 30.9069 43.199 30.8843 43.1295L30.5586 42.127L31.4113 41.5074C31.4703 41.4644 31.5143 41.4039 31.5369 41.3345C31.5594 41.2651 31.5594 41.1903 31.5369 41.1209C31.5143 41.0514 31.4704 40.9909 31.4113 40.948C31.3523 40.9051 31.2811 40.882 31.2081 40.882H30.1541L29.8283 39.8794C29.8057 39.81 29.7618 39.7495 29.7027 39.7066C29.6437 39.6637 29.5725 39.6406 29.4995 39.6406C29.4266 39.6406 29.3554 39.6637 29.2964 39.7066C29.2373 39.7495 29.1934 39.81 29.1708 39.8794L28.845 40.882H27.791C27.718 40.882 27.6468 40.9051 27.5878 40.948C27.5287 40.9909 27.4848 41.0514 27.4622 41.1209C27.4397 41.1903 27.4397 41.2651 27.4622 41.3345C27.4848 41.4039 27.5288 41.4644 27.5878 41.5074Z" fill="#4CB848"/>
<path d="M22.268 42.1738L23.1207 42.7934L22.795 43.7959C22.7723 43.8654 22.7723 43.9402 22.7949 44.0097C22.8174 44.0791 22.8614 44.1397 22.9205 44.1826C22.9795 44.2256 23.0507 44.2487 23.1237 44.2487C23.1968 44.2486 23.2679 44.2255 23.327 44.1826L24.1797 43.5629L25.0325 44.1826C25.0915 44.2255 25.1627 44.2486 25.2357 44.2487C25.3087 44.2487 25.3799 44.2256 25.439 44.1826C25.4981 44.1397 25.542 44.0791 25.5646 44.0097C25.5871 43.9402 25.5871 43.8654 25.5645 43.7959L25.2387 42.7934L26.0915 42.1738C26.1505 42.1309 26.1945 42.0704 26.217 42.0009C26.2396 41.9315 26.2396 41.8567 26.217 41.7873C26.1945 41.7179 26.1505 41.6574 26.0915 41.6145C26.0324 41.5715 25.9613 41.5484 25.8883 41.5484H24.8341L24.5085 40.5459C24.4859 40.4764 24.442 40.4159 24.3829 40.3729C24.3238 40.33 24.2527 40.3069 24.1797 40.3069C24.1066 40.3069 24.0355 40.33 23.9764 40.3729C23.9173 40.4159 23.8734 40.4764 23.8508 40.5459L23.5252 41.5484H22.4711C22.3981 41.5484 22.327 41.5715 22.268 41.6145C22.2089 41.6574 22.165 41.7179 22.1424 41.7873C22.1198 41.8567 22.1199 41.9315 22.1424 42.0009C22.165 42.0704 22.2089 42.1309 22.268 42.1738Z" fill="#4CB848"/>
<path d="M32.9081 42.1738L33.7609 42.7934L33.4351 43.7959C33.4125 43.8654 33.4124 43.9402 33.435 44.0097C33.4575 44.0791 33.5015 44.1397 33.5606 44.1826C33.6197 44.2256 33.6908 44.2487 33.7639 44.2487C33.8369 44.2486 33.9081 44.2255 33.9671 44.1826L34.8199 43.5629L35.6726 44.1826C35.7317 44.2255 35.8028 44.2486 35.8759 44.2487C35.9489 44.2487 36.02 44.2256 36.0791 44.1826C36.1382 44.1397 36.1822 44.0791 36.2047 44.0097C36.2273 43.9402 36.2272 43.8654 36.2046 43.7959L35.8789 42.7934L36.7316 42.1738C36.7907 42.1309 36.8346 42.0704 36.8572 42.0009C36.8797 41.9315 36.8797 41.8567 36.8572 41.7873C36.8346 41.7178 36.7906 41.6573 36.7315 41.6144C36.6725 41.5715 36.6013 41.5484 36.5283 41.5484H35.4743L35.1486 40.5459C35.1261 40.4764 35.0821 40.4159 35.0231 40.3729C34.964 40.33 34.8928 40.3069 34.8198 40.3069C34.7468 40.3069 34.6756 40.33 34.6166 40.3729C34.5575 40.4159 34.5135 40.4764 34.491 40.5459L34.1653 41.5484H33.1113C33.0383 41.5484 32.9672 41.5715 32.9081 41.6145C32.849 41.6574 32.8051 41.7179 32.7825 41.7873C32.76 41.8567 32.76 41.9315 32.7825 42.0009C32.8051 42.0704 32.8491 42.1309 32.9081 42.1738Z" fill="#4CB848"/>
</svg>
